<svg id="kity_svg_6" xmlns="http://www.w3.org/2000/svg" xmlns:xlink="http://www.w3.org/1999/xlink" version="1.1" width="1777" height="1413" style="background: rgb(251, 251, 251); visibility: visible;" viewBox="0 0 1777 1413"><defs id="kity_defs_7"><linearGradient id="kity_linearGradient_17" x1="0" y1="0" x2="0" y2="1"><stop id="kity_stop_18" offset="0" stop-color="rgb(255, 255, 255)"></stop><stop id="kity_stop_19" offset="1" stop-color="rgb(204, 204, 204)"></stop></linearGradient><marker id="kity_marker_2" orient="auto" refX="6" refY="0" viewBox="-7 -7 14 14" markerWidth="7" markerHeight="7" markerUnits="userSpaceOnUse"><path id="kity_path_3" fill="rgb(115, 161, 191)" stroke="none" d="M6,0A6,6,0,1,1,-6,0A6,6,0,1,1,6,0"></path></marker></defs><g id="kity_g_8"><g id="minder1" text-rendering="optimize-speed"><g id="minder_connect_group1"><path id="kity_path_31" fill="none" stroke="rgb(115, 161, 191)" stroke-width="1" d="M1022.5,844.5A105,3,0,0,1,1127.5,841.5"></path><path id="kity_path_234" fill="none" stroke="rgb(115, 161, 191)" stroke-width="1" d="M1022.5,844.5A124,4,0,0,1,898.5,848.5"></path><path id="kity_path_909" fill="none" stroke="rgb(115, 161, 191)" stroke-width="1" d="M465.5,113.5C450.5,113.5,450.5,53.5,435.5,53.5L214.5,53.5"></path><path id="kity_path_910" fill="none" stroke="rgb(115, 161, 191)" stroke-width="1" d="M465.5,113.5C450.5,113.5,450.5,113.5,435.5,113.5L119.5,113.5"></path><path id="kity_path_911" fill="none" stroke="rgb(115, 161, 191)" stroke-width="1" d="M465.5,113.5C450.5,113.5,450.5,173.5,435.5,173.5L150.5,173.5"></path><path id="kity_path_912" fill="none" stroke="rgb(115, 161, 191)" stroke-width="1" d="M610.5,366.5C595.5,366.5,595.5,113.5,580.5,113.5L465.5,113.5"></path><path id="kity_path_913" fill="none" stroke="rgb(115, 161, 191)" stroke-width="1" d="M428.5,277.5C413.5,277.5,413.5,225.5,398.5,225.5L236.5,225.5"></path><path id="kity_path_914" fill="none" stroke="rgb(115, 161, 191)" stroke-width="1" d="M428.5,277.5C413.5,277.5,413.5,277.5,398.5,277.5L236.5,277.5"></path><path id="kity_path_915" fill="none" stroke="rgb(115, 161, 191)" stroke-width="1" d="M428.5,277.5C413.5,277.5,413.5,329.5,398.5,329.5L318.5,329.5"></path><path id="kity_path_916" fill="none" stroke="rgb(115, 161, 191)" stroke-width="1" d="M610.5,366.5C595.5,366.5,595.5,277.5,580.5,277.5L428.5,277.5"></path><path id="kity_path_917" fill="none" stroke="rgb(115, 161, 191)" stroke-width="1" d="M464.5,437.5C449.5,437.5,449.5,381.5,434.5,381.5L240.5,381.5"></path><path id="kity_path_918" fill="none" stroke="rgb(115, 161, 191)" stroke-width="1" d="M464.5,437.5C449.5,437.5,449.5,433.5,434.5,433.5L247.5,433.5"></path><path id="kity_path_919" fill="none" stroke="rgb(115, 161, 191)" stroke-width="1" d="M464.5,437.5C449.5,437.5,449.5,485.5,434.5,485.5L219.5,485.5"></path><path id="kity_path_920" fill="none" stroke="rgb(115, 161, 191)" stroke-width="1" d="M610.5,366.5C595.5,366.5,595.5,437.5,580.5,437.5L464.5,437.5"></path><path id="kity_path_921" fill="none" stroke="rgb(115, 161, 191)" stroke-width="1" d="M452.5,619.5C437.5,619.5,437.5,537.5,422.5,537.5L277.5,537.5"></path><path id="kity_path_922" fill="none" stroke="rgb(115, 161, 191)" stroke-width="1" d="M452.5,619.5C437.5,619.5,437.5,589.5,422.5,589.5L242.5,589.5"></path><path id="kity_path_923" fill="none" stroke="rgb(115, 161, 191)" stroke-width="1" d="M452.5,619.5C437.5,619.5,437.5,641.5,422.5,641.5L228.5,641.5"></path><path id="kity_path_924" fill="none" stroke="rgb(115, 161, 191)" stroke-width="1" d="M452.5,619.5C437.5,619.5,437.5,693.5,422.5,693.5L227.5,693.5"></path><path id="kity_path_925" fill="none" stroke="rgb(115, 161, 191)" stroke-width="1" d="M610.5,366.5C595.5,366.5,595.5,619.5,580.5,619.5L452.5,619.5"></path><path id="kity_path_926" fill="none" stroke="rgb(115, 161, 191)" stroke-width="1" d="M768.5,848.5C753.5,848.5,753.5,366.5,738.5,366.5L610.5,366.5"></path><path id="kity_path_927" fill="none" stroke="rgb(115, 161, 191)" stroke-width="1" d="M561.5,801.5C546.5,801.5,546.5,745.5,531.5,745.5L369.5,745.5"></path><path id="kity_path_928" fill="none" stroke="rgb(115, 161, 191)" stroke-width="1" d="M561.5,801.5C546.5,801.5,546.5,797.5,531.5,797.5L369.5,797.5"></path><path id="kity_path_929" fill="none" stroke="rgb(115, 161, 191)" stroke-width="1" d="M561.5,801.5C546.5,801.5,546.5,849.5,531.5,849.5L451.5,849.5"></path><path id="kity_path_930" fill="none" stroke="rgb(115, 161, 191)" stroke-width="1" d="M768.5,848.5C753.5,848.5,753.5,801.5,738.5,801.5L561.5,801.5"></path><path id="kity_path_931" fill="none" stroke="rgb(115, 161, 191)" stroke-width="1" d="M429.5,931.5C414.5,931.5,414.5,901.5,399.5,901.5L164.5,901.5"></path><path id="kity_path_932" fill="none" stroke="rgb(115, 161, 191)" stroke-width="1" d="M429.5,931.5C414.5,931.5,414.5,953.5,399.5,953.5L120.5,953.5"></path><path id="kity_path_933" fill="none" stroke="rgb(115, 161, 191)" stroke-width="1" d="M539.5,1035.5C524.5,1035.5,524.5,931.5,509.5,931.5L429.5,931.5"></path><path id="kity_path_934" fill="none" stroke="rgb(115, 161, 191)" stroke-width="1" d="M429.5,1035.5C414.5,1035.5,414.5,1005.5,399.5,1005.5L104.5,1005.5"></path><path id="kity_path_935" fill="none" stroke="rgb(115, 161, 191)" stroke-width="1" d="M429.5,1035.5C414.5,1035.5,414.5,1057.5,399.5,1057.5L187.5,1057.5"></path><path id="kity_path_936" fill="none" stroke="rgb(115, 161, 191)" stroke-width="1" d="M539.5,1035.5C524.5,1035.5,524.5,1035.5,509.5,1035.5L429.5,1035.5"></path><path id="kity_path_937" fill="none" stroke="rgb(115, 161, 191)" stroke-width="1" d="M430.5,1139.5C415.5,1139.5,415.5,1109.5,400.5,1109.5L81.5,1109.5"></path><path id="kity_path_938" fill="none" stroke="rgb(115, 161, 191)" stroke-width="1" d="M430.5,1139.5C415.5,1139.5,415.5,1161.5,400.5,1161.5L20.5,1161.5"></path><path id="kity_path_939" fill="none" stroke="rgb(115, 161, 191)" stroke-width="1" d="M539.5,1035.5C524.5,1035.5,524.5,1139.5,509.5,1139.5L430.5,1139.5"></path><path id="kity_path_940" fill="none" stroke="rgb(115, 161, 191)" stroke-width="1" d="M768.5,848.5C753.5,848.5,753.5,1035.5,738.5,1035.5L539.5,1035.5"></path><path id="kity_path_941" fill="none" stroke="rgb(115, 161, 191)" stroke-width="1" d="M610.5,1251.5C595.5,1251.5,595.5,1221.5,580.5,1221.5L451.5,1221.5"></path><path id="kity_path_942" fill="none" stroke="rgb(115, 161, 191)" stroke-width="1" d="M610.5,1251.5C595.5,1251.5,595.5,1281.5,580.5,1281.5L168.5,1281.5"></path><path id="kity_path_943" fill="none" stroke="rgb(115, 161, 191)" stroke-width="1" d="M768.5,848.5C753.5,848.5,753.5,1251.5,738.5,1251.5L610.5,1251.5"></path><path id="kity_path_944" fill="none" stroke="rgb(115, 161, 191)" stroke-width="1" d="M622.5,1367.5C607.5,1367.5,607.5,1341.5,592.5,1341.5L403.5,1341.5"></path><path id="kity_path_945" fill="none" stroke="rgb(115, 161, 191)" stroke-width="1" d="M622.5,1367.5C607.5,1367.5,607.5,1393.5,592.5,1393.5L288.5,1393.5"></path><path id="kity_path_946" fill="none" stroke="rgb(115, 161, 191)" stroke-width="1" d="M768.5,848.5C753.5,848.5,753.5,1367.5,738.5,1367.5L622.5,1367.5"></path><path id="kity_path_954" fill="none" stroke="rgb(115, 161, 191)" stroke-width="1" d="M1404.5,784.5C1419.5,784.5,1419.5,758.5,1434.5,758.5L1551.5,758.5"></path><path id="kity_path_955" fill="none" stroke="rgb(115, 161, 191)" stroke-width="1" d="M1404.5,784.5C1419.5,784.5,1419.5,810.5,1434.5,810.5L1656.5,810.5"></path><path id="kity_path_956" fill="none" stroke="rgb(115, 161, 191)" stroke-width="1" d="M1271.5,841.5C1286.5,841.5,1286.5,784.5,1301.5,784.5L1404.5,784.5"></path><path id="kity_path_957" fill="none" stroke="rgb(115, 161, 191)" stroke-width="1" d="M1453.5,926.5C1468.5,926.5,1468.5,870.5,1483.5,870.5L1724.5,870.5"></path><path id="kity_path_958" fill="none" stroke="rgb(115, 161, 191)" stroke-width="1" d="M1453.5,926.5C1468.5,926.5,1468.5,930.5,1483.5,930.5L1660.5,930.5"></path><path id="kity_path_959" fill="none" stroke="rgb(115, 161, 191)" stroke-width="1" d="M1453.5,926.5C1480,926.5,1480,990.5,1506.5,990.5L1757.5,990.5"></path><path id="kity_path_960" fill="none" stroke="rgb(115, 161, 191)" stroke-width="1" d="M1271.5,841.5C1286.5,841.5,1286.5,926.5,1301.5,926.5L1453.5,926.5"></path></g><g id="minder_node1"><path id="node_outline1" fill="rgb(115, 161, 191)" stroke="rgb(115, 161, 191)" d="M983.5,824.5h78a5,5,0,0,1,5,5v30a5,5,0,0,1,-5,5h-78a5,5,0,0,1,-5,-5v-30a5,5,0,0,1,5,-5z" stroke-width="3"></path><g id="node_text1" fill="white"><text id="kity_text_22" text-rendering="inherit" font-size="16" dy=".8em" y="834.0999999046326" x="1002.5">Redo</text></g></g><g id="kity_g_14" display="none"><path id="kity_path_15" fill="rgba(0, 92, 153, 0.5)" stroke="none" d="M1039.5,1388.5h118v15h-118z"></path><path id="kity_path_16" fill="none" stroke="rgb(0, 76, 128)" d="M1039.5,1403.5L1157.5,1403.5" stroke-width="1"></path></g><g id="minder_node2" opacity="1"><g id="node_expander1" style="cursor: pointer;"><path id="kity_path_36" fill="white" stroke="gray" d="M1128.5,841.5A6,6,0,1,1,1116.5,841.5A6,6,0,1,1,1128.5,841.5"></path><path id="kity_path_37" fill="none" stroke="gray" d="M1118,841.5L1127,841.5"></path></g><path id="node_outline2" fill="rgb(238, 243, 246)" stroke="rgb(115, 161, 191)" d="M1132.5,828.5h136a3,3,0,0,1,3,3v20a3,3,0,0,1,-3,3h-136a3,3,0,0,1,-3,-3v-20a3,3,0,0,1,3,-3z" stroke-width="1"></path><g id="node_text2" fill="black"><text id="kity_text_33" text-rendering="inherit" font-size="14" dy=".8em" y="832.4000000953674" x="1149.5">redo log buffer</text></g></g><g id="minder_node25" opacity="1"><g id="node_expander24" style="cursor: pointer;"><path id="kity_path_239" fill="white" stroke="gray" d="M909.5,848.5A6,6,0,1,1,897.5,848.5A6,6,0,1,1,909.5,848.5"></path><path id="kity_path_240" fill="none" stroke="gray" d="M899,848.5L908,848.5"></path></g><path id="node_outline25" fill="rgb(238, 243, 246)" stroke="rgb(115, 161, 191)" d="M771.5,835.5h122a3,3,0,0,1,3,3v20a3,3,0,0,1,-3,3h-122a3,3,0,0,1,-3,-3v-20a3,3,0,0,1,3,-3z" stroke-width="1"></path><g id="node_text25" fill="black"><text id="kity_text_236" text-rendering="inherit" font-size="14" dy=".8em" y="839.4000000953674" x="788.5">redo log files</text></g></g><g id="kity_g_12" display="none"><path id="kity_path_13" fill="none" stroke="rgb(66, 94, 112)" d="M1217.5,1379.5h142a5,5,0,0,1,5,5v12a5,5,0,0,1,-5,5h-142a5,5,0,0,1,-5,-5v-12a5,5,0,0,1,5,-5z" stroke-width="5"></path></g><g id="minder_node28" opacity="1"><g id="node_expander27" style="cursor: pointer;" display="none"><path id="kity_path_277" fill="white" stroke="gray" d="M437.5,35.5A6,6,0,1,1,425.5,35.5A6,6,0,1,1,437.5,35.5"></path><path id="kity_path_278" fill="none" stroke="gray"></path></g><path id="node_outline28" fill="none" stroke="none" d="M219.5,20.5h201a5,5,0,0,1,5,5v20a5,5,0,0,1,-5,5h-201a5,5,0,0,1,-5,-5v-20a5,5,0,0,1,5,-5z" stroke-width="3"></path><g id="node_text28" fill="black"><text id="kity_text_274" text-rendering="inherit" font-size="12" dy=".8em" y="27.700000047683716" x="249.5">名字：ib_logfile1&amp;ib_logfile2</text></g><g id="node_priority4"><path id="kity_path_297" fill="#840023" stroke="none" d="M225,39c0,3.866,3.134,7,7,7h6c3.866,0,7,-3.134,7,-7V33H225V39z"></path><path id="kity_path_298" fill="#FF1200" stroke="none" d="M245,36c0,3.866,-3.134,7,-7,7H232c-3.866,0,-7,-3.134,-7,-7V33c0,-3.866,3.134,-7,7,-7h6c3.866,0,7,3.134,7,7V36z" opacity="0.8"></path><text id="kity_text_299" text-rendering="geometricPrecision" x="234" y="35.5" text-anchor="middle" font-style="italic" font-size="12" fill="white" dy="5">1</text></g></g><g id="minder_node29"><g id="node_expander28" style="cursor: pointer;" display="none"><path id="kity_path_285" fill="white" stroke="gray" d="M437.5,95.5A6,6,0,1,1,425.5,95.5A6,6,0,1,1,437.5,95.5"></path><path id="kity_path_286" fill="none" stroke="gray"></path></g><path id="node_outline29" fill="none" stroke="none" d="M124.5,80.5h296a5,5,0,0,1,5,5v20a5,5,0,0,1,-5,5h-296a5,5,0,0,1,-5,-5v-20a5,5,0,0,1,5,-5z" stroke-width="3"></path><g id="node_text29" fill="black"><text id="kity_text_282" text-rendering="inherit" font-size="12" dy=".8em" y="87.70000004768372" x="154.5">重做日志文件：记录InnoDB存储引擎的事务日志</text></g><g id="node_priority5"><path id="kity_path_302" fill="#01467F" stroke="none" d="M130,99c0,3.866,3.134,7,7,7h6c3.866,0,7,-3.134,7,-7V93H130V99z"></path><path id="kity_path_303" fill="#0074FF" stroke="none" d="M150,96c0,3.866,-3.134,7,-7,7H137c-3.866,0,-7,-3.134,-7,-7V93c0,-3.866,3.134,-7,7,-7h6c3.866,0,7,3.134,7,7V96z" opacity="0.8"></path><text id="kity_text_304" text-rendering="geometricPrecision" x="139" y="95.5" text-anchor="middle" font-style="italic" font-size="12" fill="white" dy="5">2</text></g></g><g id="minder_node30"><g id="node_expander29" style="cursor: pointer;" display="none"><path id="kity_path_293" fill="white" stroke="gray" d="M437.5,155.5A6,6,0,1,1,425.5,155.5A6,6,0,1,1,437.5,155.5"></path><path id="kity_path_294" fill="none" stroke="gray"></path></g><path id="node_outline30" fill="none" stroke="none" d="M155.5,140.5h265a5,5,0,0,1,5,5v20a5,5,0,0,1,-5,5h-265a5,5,0,0,1,-5,-5v-20a5,5,0,0,1,5,-5z" stroke-width="3"></path><g id="node_text30" fill="black"><text id="kity_text_290" text-rendering="inherit" font-size="12" dy=".8em" y="147.70000004768372" x="185.5">栗子：宕机后的恢复，可以保持数据完整性</text></g><g id="node_priority6"><path id="kity_path_307" fill="#006300" stroke="none" d="M161,159c0,3.866,3.134,7,7,7h6c3.866,0,7,-3.134,7,-7V153H161V159z"></path><path id="kity_path_308" fill="#00AF00" stroke="none" d="M181,156c0,3.866,-3.134,7,-7,7H168c-3.866,0,-7,-3.134,-7,-7V153c0,-3.866,3.134,-7,7,-7h6c3.866,0,7,3.134,7,7V156z" opacity="0.8"></path><text id="kity_text_309" text-rendering="geometricPrecision" x="170" y="155.5" text-anchor="middle" font-style="italic" font-size="12" fill="white" dy="5">3</text></g></g><g id="minder_node27"><g id="node_expander26" style="cursor: pointer;"><path id="kity_path_269" fill="white" stroke="gray" d="M582.5,95.5A6,6,0,1,1,570.5,95.5A6,6,0,1,1,582.5,95.5"></path><path id="kity_path_270" fill="none" stroke="gray" d="M572,95.5L581,95.5"></path></g><path id="node_outline27" fill="none" stroke="none" d="M470.5,80.5h95a5,5,0,0,1,5,5v20a5,5,0,0,1,-5,5h-95a5,5,0,0,1,-5,-5v-20a5,5,0,0,1,5,-5z" stroke-width="3"></path><g id="node_text27" fill="black"><text id="kity_text_266" text-rendering="inherit" font-size="12" dy=".8em" y="87.70000004768372" x="500.5">日志文件名</text></g><g id="node_priority7"><path id="kity_path_376" fill="#840023" stroke="none" d="M476,99c0,3.866,3.134,7,7,7h6c3.866,0,7,-3.134,7,-7V93H476V99z"></path><path id="kity_path_377" fill="#FF1200" stroke="none" d="M496,96c0,3.866,-3.134,7,-7,7H483c-3.866,0,-7,-3.134,-7,-7V93c0,-3.866,3.134,-7,7,-7h6c3.866,0,7,3.134,7,7V96z" opacity="0.8"></path><text id="kity_text_378" text-rendering="geometricPrecision" x="485" y="95.5" text-anchor="middle" font-style="italic" font-size="12" fill="white" dy="5">1</text></g></g><g id="minder_node32"><g id="node_expander31" style="cursor: pointer;" display="none"><path id="kity_path_324" fill="white" stroke="gray" d="M400.5,211.5A6,6,0,1,1,388.5,211.5A6,6,0,1,1,400.5,211.5"></path><path id="kity_path_325" fill="none" stroke="gray"></path></g><path id="node_outline32" fill="none" stroke="none" d="M241.5,200.5h142a5,5,0,0,1,5,5v12a5,5,0,0,1,-5,5h-142a5,5,0,0,1,-5,-5v-12a5,5,0,0,1,5,-5z" stroke-width="3"></path><g id="node_text32" fill="black"><text id="kity_text_321" text-rendering="inherit" font-size="12" dy=".8em" y="203.70000004768372" x="246.5">设置太大：有哪些问题？</text></g></g><g id="minder_node33"><g id="node_expander32" style="cursor: pointer;" display="none"><path id="kity_path_332" fill="white" stroke="gray" d="M400.5,263.5A6,6,0,1,1,388.5,263.5A6,6,0,1,1,400.5,263.5"></path><path id="kity_path_333" fill="none" stroke="gray"></path></g><path id="node_outline33" fill="none" stroke="none" d="M241.5,252.5h142a5,5,0,0,1,5,5v12a5,5,0,0,1,-5,5h-142a5,5,0,0,1,-5,-5v-12a5,5,0,0,1,5,-5z" stroke-width="3"></path><g id="node_text33" fill="black"><text id="kity_text_329" text-rendering="inherit" font-size="12" dy=".8em" y="255.70000004768372" x="246.5">设置太小：有哪些问题？</text></g></g><g id="minder_node34"><g id="node_expander33" style="cursor: pointer;" display="none"><path id="kity_path_340" fill="white" stroke="gray" d="M400.5,315.5A6,6,0,1,1,388.5,315.5A6,6,0,1,1,400.5,315.5"></path><path id="kity_path_341" fill="none" stroke="gray"></path></g><path id="node_outline34" fill="none" stroke="none" d="M323.5,304.5h60a5,5,0,0,1,5,5v12a5,5,0,0,1,-5,5h-60a5,5,0,0,1,-5,-5v-12a5,5,0,0,1,5,-5z" stroke-width="3"></path><g id="node_text34" fill="black"><text id="kity_text_337" text-rendering="inherit" font-size="12" dy=".8em" y="307.7000000476837" x="328.5">分支主题</text></g></g><g id="minder_node31"><g id="node_expander30" style="cursor: pointer;"><path id="kity_path_316" fill="white" stroke="gray" d="M582.5,263.5A6,6,0,1,1,570.5,263.5A6,6,0,1,1,582.5,263.5"></path><path id="kity_path_317" fill="none" stroke="gray" d="M572,263.5L581,263.5"></path></g><path id="node_outline31" fill="none" stroke="none" d="M433.5,252.5h132a5,5,0,0,1,5,5v12a5,5,0,0,1,-5,5h-132a5,5,0,0,1,-5,-5v-12a5,5,0,0,1,5,-5z" stroke-width="3"></path><g id="node_text31" fill="black"><text id="kity_text_313" text-rendering="inherit" font-size="12" dy=".8em" y="255.70000004768372" x="438.5">重做日志文件大小设置</text></g></g><g id="minder_node36"><g id="node_expander35" style="cursor: pointer;" display="none"><path id="kity_path_356" fill="white" stroke="gray" d="M436.5,367.5A6,6,0,1,1,424.5,367.5A6,6,0,1,1,436.5,367.5"></path><path id="kity_path_357" fill="none" stroke="gray"></path></g><path id="node_outline36" fill="none" stroke="none" d="M245.5,356.5h174a5,5,0,0,1,5,5v12a5,5,0,0,1,-5,5h-174a5,5,0,0,1,-5,-5v-12a5,5,0,0,1,5,-5z" stroke-width="3"></path><g id="node_text36" fill="black"><text id="kity_text_353" text-rendering="inherit" font-size="12" dy=".8em" y="359.7000000476837" x="250.5">至少一个组，组内至少2个文件</text></g></g><g id="minder_node37"><g id="node_expander36" style="cursor: pointer;" display="none"><path id="kity_path_364" fill="white" stroke="gray" d="M436.5,419.5A6,6,0,1,1,424.5,419.5A6,6,0,1,1,436.5,419.5"></path><path id="kity_path_365" fill="none" stroke="gray"></path></g><path id="node_outline37" fill="none" stroke="none" d="M252.5,408.5h167a5,5,0,0,1,5,5v12a5,5,0,0,1,-5,5h-167a5,5,0,0,1,-5,-5v-12a5,5,0,0,1,5,-5z" stroke-width="3"></path><g id="node_text37" fill="black"><text id="kity_text_361" text-rendering="inherit" font-size="12" dy=".8em" y="411.7000000476837" x="257.5">镜像日志组：如何设置及作用</text></g></g><g id="minder_node38"><g id="node_expander37" style="cursor: pointer;" display="none"><path id="kity_path_372" fill="white" stroke="gray" d="M436.5,471.5A6,6,0,1,1,424.5,471.5A6,6,0,1,1,436.5,471.5"></path><path id="kity_path_373" fill="none" stroke="gray"></path></g><path id="node_outline38" fill="none" stroke="none" d="M224.5,460.5h195a5,5,0,0,1,5,5v12a5,5,0,0,1,-5,5h-195a5,5,0,0,1,-5,-5v-12a5,5,0,0,1,5,-5z" stroke-width="3"></path><g id="node_text38" fill="black"><text id="kity_text_369" text-rendering="inherit" font-size="12" dy=".8em" y="463.7000000476837" x="229.5">日志文件大小，循环运行 切换方式</text></g></g><g id="minder_node35"><g id="node_expander34" style="cursor: pointer;"><path id="kity_path_348" fill="white" stroke="gray" d="M582.5,419.5A6,6,0,1,1,570.5,419.5A6,6,0,1,1,582.5,419.5"></path><path id="kity_path_349" fill="none" stroke="gray" d="M572,419.5L581,419.5"></path></g><path id="node_outline35" fill="none" stroke="none" d="M469.5,404.5h96a5,5,0,0,1,5,5v20a5,5,0,0,1,-5,5h-96a5,5,0,0,1,-5,-5v-20a5,5,0,0,1,5,-5z" stroke-width="3"></path><g id="node_text35" fill="black"><text id="kity_text_345" text-rendering="inherit" font-size="12" dy=".8em" y="411.7000000476837" x="499.5">日志文件组</text></g><g id="node_priority8"><path id="kity_path_381" fill="#01467F" stroke="none" d="M475,423c0,3.866,3.134,7,7,7h6c3.866,0,7,-3.134,7,-7V417H475V423z"></path><path id="kity_path_382" fill="#0074FF" stroke="none" d="M495,420c0,3.866,-3.134,7,-7,7H482c-3.866,0,-7,-3.134,-7,-7V417c0,-3.866,3.134,-7,7,-7h6c3.866,0,7,3.134,7,7V420z" opacity="0.8"></path><text id="kity_text_383" text-rendering="geometricPrecision" x="484" y="419.5" text-anchor="middle" font-style="italic" font-size="12" fill="white" dy="5">2</text></g></g><g id="minder_node40"><g id="node_expander39" style="cursor: pointer;" display="none"><path id="kity_path_403" fill="white" stroke="gray" d="M424.5,523.5A6,6,0,1,1,412.5,523.5A6,6,0,1,1,424.5,523.5"></path><path id="kity_path_404" fill="none" stroke="gray"></path></g><path id="node_outline40" fill="none" stroke="none" d="M282.5,512.5h125a5,5,0,0,1,5,5v12a5,5,0,0,1,-5,5h-125a5,5,0,0,1,-5,-5v-12a5,5,0,0,1,5,-5z" stroke-width="3"></path><g id="node_text40" fill="black"><text id="kity_text_400" text-rendering="inherit" font-size="12" dy=".8em" y="515.7000000476837" x="287.5">innodb_log_file_size</text></g></g><g id="minder_node41"><g id="node_expander40" style="cursor: pointer;" display="none"><path id="kity_path_411" fill="white" stroke="gray" d="M424.5,575.5A6,6,0,1,1,412.5,575.5A6,6,0,1,1,424.5,575.5"></path><path id="kity_path_412" fill="none" stroke="gray"></path></g><path id="node_outline41" fill="none" stroke="none" d="M247.5,564.5h160a5,5,0,0,1,5,5v12a5,5,0,0,1,-5,5h-160a5,5,0,0,1,-5,-5v-12a5,5,0,0,1,5,-5z" stroke-width="3"></path><g id="node_text41" fill="black"><text id="kity_text_408" text-rendering="inherit" font-size="12" dy=".8em" y="567.7000000476837" x="252.5">innodb_log_files_in_group</text></g></g><g id="minder_node42"><g id="node_expander41" style="cursor: pointer;" display="none"><path id="kity_path_419" fill="white" stroke="gray" d="M424.5,627.5A6,6,0,1,1,412.5,627.5A6,6,0,1,1,424.5,627.5"></path><path id="kity_path_420" fill="none" stroke="gray"></path></g><path id="node_outline42" fill="none" stroke="none" d="M233.5,616.5h174a5,5,0,0,1,5,5v12a5,5,0,0,1,-5,5h-174a5,5,0,0,1,-5,-5v-12a5,5,0,0,1,5,-5z" stroke-width="3"></path><g id="node_text42" fill="black"><text id="kity_text_416" text-rendering="inherit" font-size="12" dy=".8em" y="619.7000000476837" x="238.5">innodb_mirrored_bg_groups</text></g></g><g id="minder_node43"><g id="node_expander42" style="cursor: pointer;" display="none"><path id="kity_path_427" fill="white" stroke="gray" d="M424.5,679.5A6,6,0,1,1,412.5,679.5A6,6,0,1,1,424.5,679.5"></path><path id="kity_path_428" fill="none" stroke="gray"></path></g><path id="node_outline43" fill="none" stroke="none" d="M232.5,668.5h175a5,5,0,0,1,5,5v12a5,5,0,0,1,-5,5h-175a5,5,0,0,1,-5,-5v-12a5,5,0,0,1,5,-5z" stroke-width="3"></path><g id="node_text43" fill="black"><text id="kity_text_424" text-rendering="inherit" font-size="12" dy=".8em" y="671.7000000476837" x="237.5">innodb_log_group_home_dir</text></g></g><g id="minder_node39"><g id="node_expander38" style="cursor: pointer;"><path id="kity_path_390" fill="white" stroke="gray" d="M582.5,601.5A6,6,0,1,1,570.5,601.5A6,6,0,1,1,582.5,601.5"></path><path id="kity_path_391" fill="none" stroke="gray" d="M572,601.5L581,601.5"></path></g><path id="node_outline39" fill="none" stroke="none" d="M457.5,586.5h108a5,5,0,0,1,5,5v20a5,5,0,0,1,-5,5h-108a5,5,0,0,1,-5,-5v-20a5,5,0,0,1,5,-5z" stroke-width="3"></path><g id="node_text39" fill="black"><text id="kity_text_387" text-rendering="inherit" font-size="12" dy=".8em" y="593.7000000476837" x="487.5">日志文件修改</text></g><g id="node_priority9"><path id="kity_path_394" fill="#006300" stroke="none" d="M463,605c0,3.866,3.134,7,7,7h6c3.866,0,7,-3.134,7,-7V599H463V605z"></path><path id="kity_path_395" fill="#00AF00" stroke="none" d="M483,602c0,3.866,-3.134,7,-7,7H470c-3.866,0,-7,-3.134,-7,-7V599c0,-3.866,3.134,-7,7,-7h6c3.866,0,7,3.134,7,7V602z" opacity="0.8"></path><text id="kity_text_396" text-rendering="geometricPrecision" x="472" y="601.5" text-anchor="middle" font-style="italic" font-size="12" fill="white" dy="5">3</text></g></g><g id="minder_node26" opacity="1"><g id="node_expander25" style="cursor: pointer;"><path id="kity_path_261" fill="white" stroke="gray" d="M740.5,348.5A6,6,0,1,1,728.5,348.5A6,6,0,1,1,740.5,348.5"></path><path id="kity_path_262" fill="none" stroke="gray" d="M730,348.5L739,348.5"></path></g><path id="node_outline26" fill="none" stroke="none" d="M615.5,333.5h108a5,5,0,0,1,5,5v20a5,5,0,0,1,-5,5h-108a5,5,0,0,1,-5,-5v-20a5,5,0,0,1,5,-5z" stroke-width="3"></path><g id="node_text26" fill="black"><text id="kity_text_258" text-rendering="inherit" font-size="12" dy=".8em" y="340.7000000476837" x="645.5">重做日志介绍</text></g><g id="node_priority10"><path id="kity_path_439" fill="#840023" stroke="none" d="M621,352c0,3.866,3.134,7,7,7h6c3.866,0,7,-3.134,7,-7V346H621V352z"></path><path id="kity_path_440" fill="#FF1200" stroke="none" d="M641,349c0,3.866,-3.134,7,-7,7H628c-3.866,0,-7,-3.134,-7,-7V346c0,-3.866,3.134,-7,7,-7h6c3.866,0,7,3.134,7,7V349z" opacity="0.8"></path><text id="kity_text_441" text-rendering="geometricPrecision" x="630" y="348.5" text-anchor="middle" font-style="italic" font-size="12" fill="white" dy="5">1</text></g></g><g id="minder_node52"><g id="node_expander51" style="cursor: pointer;" display="none"><path id="kity_path_519" fill="white" stroke="gray" d="M533.5,731.5A6,6,0,1,1,521.5,731.5A6,6,0,1,1,533.5,731.5"></path><path id="kity_path_520" fill="none" stroke="gray"></path></g><path id="node_outline52" fill="none" stroke="none" d="M374.5,720.5h142a5,5,0,0,1,5,5v12a5,5,0,0,1,-5,5h-142a5,5,0,0,1,-5,-5v-12a5,5,0,0,1,5,-5z"></path><g id="node_text52" fill="black"><text id="kity_text_510" text-rendering="inherit" font-size="12" dy=".8em" y="723.7000000476837" x="379.5">设置太大：有哪些问题？</text></g></g><g id="minder_node53"><g id="node_expander52" style="cursor: pointer;" display="none"><path id="kity_path_522" fill="white" stroke="gray" d="M533.5,783.5A6,6,0,1,1,521.5,783.5A6,6,0,1,1,533.5,783.5"></path><path id="kity_path_523" fill="none" stroke="gray"></path></g><path id="node_outline53" fill="none" stroke="none" d="M374.5,772.5h142a5,5,0,0,1,5,5v12a5,5,0,0,1,-5,5h-142a5,5,0,0,1,-5,-5v-12a5,5,0,0,1,5,-5z"></path><g id="node_text53" fill="black"><text id="kity_text_512" text-rendering="inherit" font-size="12" dy=".8em" y="775.7000000476837" x="379.5">设置太小：有哪些问题？</text></g></g><g id="minder_node54"><g id="node_expander53" style="cursor: pointer;" display="none"><path id="kity_path_525" fill="white" stroke="gray" d="M533.5,835.5A6,6,0,1,1,521.5,835.5A6,6,0,1,1,533.5,835.5"></path><path id="kity_path_526" fill="none" stroke="gray"></path></g><path id="node_outline54" fill="none" stroke="none" d="M456.5,824.5h60a5,5,0,0,1,5,5v12a5,5,0,0,1,-5,5h-60a5,5,0,0,1,-5,-5v-12a5,5,0,0,1,5,-5z"></path><g id="node_text54" fill="black"><text id="kity_text_514" text-rendering="inherit" font-size="12" dy=".8em" y="827.7000000476837" x="461.5">分支主题</text></g></g><g id="minder_node51" opacity="1"><g id="node_expander50" style="cursor: pointer;"><path id="kity_path_507" fill="white" stroke="gray" d="M740.5,783.5A6,6,0,1,1,728.5,783.5A6,6,0,1,1,740.5,783.5"></path><path id="kity_path_508" fill="none" stroke="gray" d="M730,783.5L739,783.5"></path></g><path id="node_outline51" fill="none" stroke="none" d="M566.5,768.5h157a5,5,0,0,1,5,5v20a5,5,0,0,1,-5,5h-157a5,5,0,0,1,-5,-5v-20a5,5,0,0,1,5,-5z" stroke-width="3"></path><g id="node_text51" fill="black"><text id="kity_text_504" text-rendering="inherit" font-size="12" dy=".8em" y="775.7000000476837" x="596.5">重做日志文件大小设置</text></g><g id="node_priority12"><path id="kity_path_529" fill="#01467F" stroke="none" d="M572,787c0,3.866,3.134,7,7,7h6c3.866,0,7,-3.134,7,-7V781H572V787z"></path><path id="kity_path_530" fill="#0074FF" stroke="none" d="M592,784c0,3.866,-3.134,7,-7,7H579c-3.866,0,-7,-3.134,-7,-7V781c0,-3.866,3.134,-7,7,-7h6c3.866,0,7,3.134,7,7V784z" opacity="0.8"></path><text id="kity_text_531" text-rendering="geometricPrecision" x="581" y="783.5" text-anchor="middle" font-style="italic" font-size="12" fill="white" dy="5">2</text></g></g><g id="minder_node59"><g id="node_expander58" style="cursor: pointer;" display="none"><path id="kity_path_590" fill="white" stroke="gray" d="M401.5,887.5A6,6,0,1,1,389.5,887.5A6,6,0,1,1,401.5,887.5"></path><path id="kity_path_591" fill="none" stroke="gray"></path></g><path id="node_outline59" fill="none" stroke="none" d="M169.5,876.5h215a5,5,0,0,1,5,5v12a5,5,0,0,1,-5,5h-215a5,5,0,0,1,-5,-5v-12a5,5,0,0,1,5,-5z" stroke-width="3"></path><g id="node_text59" fill="black"><text id="kity_text_587" text-rendering="inherit" font-size="12" dy=".8em" y="879.7000000476837" x="174.5">二进制日志：记录数据库所有相关日志</text></g></g><g id="minder_node60"><g id="node_expander59" style="cursor: pointer;" display="none"><path id="kity_path_598" fill="white" stroke="gray" d="M401.5,939.5A6,6,0,1,1,389.5,939.5A6,6,0,1,1,401.5,939.5"></path><path id="kity_path_599" fill="none" stroke="gray"></path></g><path id="node_outline60" fill="none" stroke="none" d="M125.5,928.5h259a5,5,0,0,1,5,5v12a5,5,0,0,1,-5,5h-259a5,5,0,0,1,-5,-5v-12a5,5,0,0,1,5,-5z" stroke-width="3"></path><g id="node_text60" fill="black"><text id="kity_text_595" text-rendering="inherit" font-size="12" dy=".8em" y="931.7000000476837" x="130.5">重做日志：只记录InnoDB存储引擎的事务日志</text></g></g><g id="minder_node56"><g id="node_expander55" style="cursor: pointer;"><path id="kity_path_546" fill="white" stroke="gray" d="M511.5,913.5A6,6,0,1,1,499.5,913.5A6,6,0,1,1,511.5,913.5"></path><path id="kity_path_547" fill="none" stroke="gray" d="M501,913.5L510,913.5"></path></g><path id="node_outline56" fill="none" stroke="none" d="M434.5,898.5h60a5,5,0,0,1,5,5v20a5,5,0,0,1,-5,5h-60a5,5,0,0,1,-5,-5v-20a5,5,0,0,1,5,-5z" stroke-width="3"></path><g id="node_text56" fill="black"><text id="kity_text_543" text-rendering="inherit" font-size="12" dy=".8em" y="905.7000000476837" x="464.5">类别</text></g><g id="node_priority14"><path id="kity_path_571" fill="#840023" stroke="none" d="M440,917c0,3.866,3.134,7,7,7h6c3.866,0,7,-3.134,7,-7V911H440V917z"></path><path id="kity_path_572" fill="#FF1200" stroke="none" d="M460,914c0,3.866,-3.134,7,-7,7H447c-3.866,0,-7,-3.134,-7,-7V911c0,-3.866,3.134,-7,7,-7h6c3.866,0,7,3.134,7,7V914z" opacity="0.8"></path><text id="kity_text_573" text-rendering="geometricPrecision" x="449" y="913.5" text-anchor="middle" font-style="italic" font-size="12" fill="white" dy="5">1</text></g></g><g id="minder_node61"><g id="node_expander60" style="cursor: pointer;" display="none"><path id="kity_path_606" fill="white" stroke="gray" d="M401.5,991.5A6,6,0,1,1,389.5,991.5A6,6,0,1,1,401.5,991.5"></path><path id="kity_path_607" fill="none" stroke="gray"></path></g><path id="node_outline61" fill="none" stroke="none" d="M109.5,980.5h275a5,5,0,0,1,5,5v12a5,5,0,0,1,-5,5h-275a5,5,0,0,1,-5,-5v-12a5,5,0,0,1,5,-5z" stroke-width="3"></path><g id="node_text61" fill="black"><text id="kity_text_603" text-rendering="inherit" font-size="12" dy=".8em" y="983.7000000476837" x="114.5">二进制日志：记录事务的具体操作内容，逻辑日志</text></g></g><g id="minder_node62"><g id="node_expander61" style="cursor: pointer;" display="none"><path id="kity_path_614" fill="white" stroke="gray" d="M401.5,1043.5A6,6,0,1,1,389.5,1043.5A6,6,0,1,1,401.5,1043.5"></path><path id="kity_path_615" fill="none" stroke="gray"></path></g><path id="node_outline62" fill="none" stroke="none" d="M192.5,1032.5h192a5,5,0,0,1,5,5v12a5,5,0,0,1,-5,5h-192a5,5,0,0,1,-5,-5v-12a5,5,0,0,1,5,-5z" stroke-width="3"></path><g id="node_text62" fill="black"><text id="kity_text_611" text-rendering="inherit" font-size="12" dy=".8em" y="1035.7000000476837" x="197.5">重做日志：记录物理页的更改情况</text></g></g><g id="minder_node57"><g id="node_expander56" style="cursor: pointer;"><path id="kity_path_554" fill="white" stroke="gray" d="M511.5,1017.5A6,6,0,1,1,499.5,1017.5A6,6,0,1,1,511.5,1017.5"></path><path id="kity_path_555" fill="none" stroke="gray" d="M501,1017.5L510,1017.5"></path></g><path id="node_outline57" fill="none" stroke="none" d="M434.5,1002.5h60a5,5,0,0,1,5,5v20a5,5,0,0,1,-5,5h-60a5,5,0,0,1,-5,-5v-20a5,5,0,0,1,5,-5z" stroke-width="3"></path><g id="node_text57" fill="black"><text id="kity_text_551" text-rendering="inherit" font-size="12" dy=".8em" y="1009.7000000476837" x="464.5">内容</text></g><g id="node_priority15"><path id="kity_path_576" fill="#01467F" stroke="none" d="M440,1021c0,3.866,3.134,7,7,7h6c3.866,0,7,-3.134,7,-7V1015H440V1021z"></path><path id="kity_path_577" fill="#0074FF" stroke="none" d="M460,1018c0,3.866,-3.134,7,-7,7H447c-3.866,0,-7,-3.134,-7,-7V1015c0,-3.866,3.134,-7,7,-7h6c3.866,0,7,3.134,7,7V1018z" opacity="0.8"></path><text id="kity_text_578" text-rendering="geometricPrecision" x="449" y="1017.5" text-anchor="middle" font-style="italic" font-size="12" fill="white" dy="5">2</text></g></g><g id="minder_node63"><g id="node_expander62" style="cursor: pointer;" display="none"><path id="kity_path_622" fill="white" stroke="gray" d="M402.5,1095.5A6,6,0,1,1,390.5,1095.5A6,6,0,1,1,402.5,1095.5"></path><path id="kity_path_623" fill="none" stroke="gray"></path></g><path id="node_outline63" fill="none" stroke="none" d="M86.5,1084.5h299a5,5,0,0,1,5,5v12a5,5,0,0,1,-5,5h-299a5,5,0,0,1,-5,-5v-12a5,5,0,0,1,5,-5z" stroke-width="3"></path><g id="node_text63" fill="black"><text id="kity_text_619" text-rendering="inherit" font-size="12" dy=".8em" y="1087.7000000476837" x="91.5">二进制日志：在事务提交的时候进行提交，写一次磁盘</text></g></g><g id="minder_node64"><g id="node_expander63" style="cursor: pointer;" display="none"><path id="kity_path_630" fill="white" stroke="gray" d="M402.5,1147.5A6,6,0,1,1,390.5,1147.5A6,6,0,1,1,402.5,1147.5"></path><path id="kity_path_631" fill="none" stroke="gray"></path></g><path id="node_outline64" fill="none" stroke="none" d="M25.5,1136.5h360a5,5,0,0,1,5,5v12a5,5,0,0,1,-5,5h-360a5,5,0,0,1,-5,-5v-12a5,5,0,0,1,5,-5z" stroke-width="3"></path><g id="node_text64" fill="black"><text id="kity_text_627" text-rendering="inherit" font-size="12" dy=".8em" y="1139.7000000476837" x="30.5">重做日志：在事务过程中，不断有重做日志条目写入重做日志文件</text></g></g><g id="minder_node58"><g id="node_expander57" style="cursor: pointer;"><path id="kity_path_562" fill="white" stroke="gray" d="M511.5,1121.5A6,6,0,1,1,499.5,1121.5A6,6,0,1,1,511.5,1121.5"></path><path id="kity_path_563" fill="none" stroke="gray" d="M501,1121.5L510,1121.5"></path></g><path id="node_outline58" fill="none" stroke="none" d="M435.5,1106.5h59a5,5,0,0,1,5,5v20a5,5,0,0,1,-5,5h-59a5,5,0,0,1,-5,-5v-20a5,5,0,0,1,5,-5z" stroke-width="3"></path><g id="node_text58" fill="black"><text id="kity_text_559" text-rendering="inherit" font-size="12" dy=".8em" y="1113.7000000476837" x="465.5">时间</text></g><g id="node_priority16"><path id="kity_path_581" fill="#006300" stroke="none" d="M441,1125c0,3.866,3.134,7,7,7h6c3.866,0,7,-3.134,7,-7V1119H441V1125z"></path><path id="kity_path_582" fill="#00AF00" stroke="none" d="M461,1122c0,3.866,-3.134,7,-7,7H448c-3.866,0,-7,-3.134,-7,-7V1119c0,-3.866,3.134,-7,7,-7h6c3.866,0,7,3.134,7,7V1122z" opacity="0.8"></path><text id="kity_text_583" text-rendering="geometricPrecision" x="450" y="1121.5" text-anchor="middle" font-style="italic" font-size="12" fill="white" dy="5">3</text></g></g><g id="minder_node55" opacity="1"><g id="node_expander54" style="cursor: pointer;"><path id="kity_path_538" fill="white" stroke="gray" d="M740.5,1017.5A6,6,0,1,1,728.5,1017.5A6,6,0,1,1,740.5,1017.5"></path><path id="kity_path_539" fill="none" stroke="gray" d="M730,1017.5L739,1017.5"></path></g><path id="node_outline55" fill="none" stroke="none" d="M544.5,1002.5h179a5,5,0,0,1,5,5v20a5,5,0,0,1,-5,5h-179a5,5,0,0,1,-5,-5v-20a5,5,0,0,1,5,-5z" stroke-width="3"></path><g id="node_text55" fill="black"><text id="kity_text_535" text-rendering="inherit" font-size="12" dy=".8em" y="1009.7000000476837" x="574.5">二进制日志和重做日志对比</text></g><g id="node_priority13"><path id="kity_path_566" fill="#006300" stroke="none" d="M550,1021c0,3.866,3.134,7,7,7h6c3.866,0,7,-3.134,7,-7V1015H550V1021z"></path><path id="kity_path_567" fill="#00AF00" stroke="none" d="M570,1018c0,3.866,-3.134,7,-7,7H557c-3.866,0,-7,-3.134,-7,-7V1015c0,-3.866,3.134,-7,7,-7h6c3.866,0,7,3.134,7,7V1018z" opacity="0.8"></path><text id="kity_text_568" text-rendering="geometricPrecision" x="559" y="1017.5" text-anchor="middle" font-style="italic" font-size="12" fill="white" dy="5">3</text></g></g><g id="minder_node66"><g id="node_expander65" style="cursor: pointer;" display="none"><path id="kity_path_651" fill="white" stroke="gray" d="M582.5,1203.5A6,6,0,1,1,570.5,1203.5A6,6,0,1,1,582.5,1203.5"></path><path id="kity_path_652" fill="none" stroke="gray"></path></g><path id="node_outline66" fill="none" stroke="none" d="M456.5,1188.5h109a5,5,0,0,1,5,5v20a5,5,0,0,1,-5,5h-109a5,5,0,0,1,-5,-5v-20a5,5,0,0,1,5,-5z" stroke-width="3"></path><g id="node_text66" fill="black"><text id="kity_text_648" text-rendering="inherit" font-size="12" dy=".8em" y="1195.7000000476837" x="486.5">基本条目格式</text></g><g id="node_priority18"><path id="kity_path_663" fill="#840023" stroke="none" d="M462,1207c0,3.866,3.134,7,7,7h6c3.866,0,7,-3.134,7,-7V1201H462V1207z"></path><path id="kity_path_664" fill="#FF1200" stroke="none" d="M482,1204c0,3.866,-3.134,7,-7,7H469c-3.866,0,-7,-3.134,-7,-7V1201c0,-3.866,3.134,-7,7,-7h6c3.866,0,7,3.134,7,7V1204z" opacity="0.8"></path><text id="kity_text_665" text-rendering="geometricPrecision" x="471" y="1203.5" text-anchor="middle" font-style="italic" font-size="12" fill="white" dy="5">1</text></g></g><g id="minder_node67"><g id="node_expander66" style="cursor: pointer;" display="none"><path id="kity_path_659" fill="white" stroke="gray" d="M582.5,1263.5A6,6,0,1,1,570.5,1263.5A6,6,0,1,1,582.5,1263.5"></path><path id="kity_path_660" fill="none" stroke="gray"></path></g><path id="node_outline67" fill="none" stroke="none" d="M173.5,1248.5h392a5,5,0,0,1,5,5v20a5,5,0,0,1,-5,5h-392a5,5,0,0,1,-5,-5v-20a5,5,0,0,1,5,-5z" stroke-width="3"></path><g id="node_text67" fill="black"><text id="kity_text_656" text-rendering="inherit" font-size="12" dy=".8em" y="1255.7000000476837" x="203.5">条目名称的意义：redo_log_type space page_no redo_log_body</text></g><g id="node_priority19"><path id="kity_path_668" fill="#01467F" stroke="none" d="M179,1267c0,3.866,3.134,7,7,7h6c3.866,0,7,-3.134,7,-7V1261H179V1267z"></path><path id="kity_path_669" fill="#0074FF" stroke="none" d="M199,1264c0,3.866,-3.134,7,-7,7H186c-3.866,0,-7,-3.134,-7,-7V1261c0,-3.866,3.134,-7,7,-7h6c3.866,0,7,3.134,7,7V1264z" opacity="0.8"></path><text id="kity_text_670" text-rendering="geometricPrecision" x="188" y="1263.5" text-anchor="middle" font-style="italic" font-size="12" fill="white" dy="5">2</text></g></g><g id="minder_node65"><g id="node_expander64" style="cursor: pointer;"><path id="kity_path_638" fill="white" stroke="gray" d="M740.5,1233.5A6,6,0,1,1,728.5,1233.5A6,6,0,1,1,740.5,1233.5"></path><path id="kity_path_639" fill="none" stroke="gray" d="M730,1233.5L739,1233.5"></path></g><path id="node_outline65" fill="none" stroke="none" d="M615.5,1218.5h108a5,5,0,0,1,5,5v20a5,5,0,0,1,-5,5h-108a5,5,0,0,1,-5,-5v-20a5,5,0,0,1,5,-5z" stroke-width="3"></path><g id="node_text65" fill="black"><text id="kity_text_635" text-rendering="inherit" font-size="12" dy=".8em" y="1225.7000000476837" x="645.5">重做日志条目</text></g><g id="node_priority17"><path id="kity_path_642" fill="#B25000" stroke="none" d="M621,1237c0,3.866,3.134,7,7,7h6c3.866,0,7,-3.134,7,-7V1231H621V1237z"></path><path id="kity_path_643" fill="#FF962E" stroke="none" d="M641,1234c0,3.866,-3.134,7,-7,7H628c-3.866,0,-7,-3.134,-7,-7V1231c0,-3.866,3.134,-7,7,-7h6c3.866,0,7,3.134,7,7V1234z" opacity="0.8"></path><text id="kity_text_644" text-rendering="geometricPrecision" x="630" y="1233.5" text-anchor="middle" font-style="italic" font-size="12" fill="white" dy="5">4</text></g></g><g id="minder_node69"><g id="node_expander68" style="cursor: pointer;" display="none"><path id="kity_path_690" fill="white" stroke="gray" d="M594.5,1323.5A6,6,0,1,1,582.5,1323.5A6,6,0,1,1,594.5,1323.5"></path><path id="kity_path_691" fill="none" stroke="gray"></path></g><path id="node_outline69" fill="none" stroke="none" d="M408.5,1308.5h169a5,5,0,0,1,5,5v20a5,5,0,0,1,-5,5h-169a5,5,0,0,1,-5,-5v-20a5,5,0,0,1,5,-5z" stroke-width="3"></path><g id="node_text69" fill="black"><text id="kity_text_687" text-rendering="inherit" font-size="12" dy=".8em" y="1315.7000000476837" x="438.5">先写入缓冲，再写入文件</text></g><g id="node_priority21"><path id="kity_path_694" fill="#840023" stroke="none" d="M414,1327c0,3.866,3.134,7,7,7h6c3.866,0,7,-3.134,7,-7V1321H414V1327z"></path><path id="kity_path_695" fill="#FF1200" stroke="none" d="M434,1324c0,3.866,-3.134,7,-7,7H421c-3.866,0,-7,-3.134,-7,-7V1321c0,-3.866,3.134,-7,7,-7h6c3.866,0,7,3.134,7,7V1324z" opacity="0.8"></path><text id="kity_text_696" text-rendering="geometricPrecision" x="423" y="1323.5" text-anchor="middle" font-style="italic" font-size="12" fill="white" dy="5">1</text></g></g><g id="minder_node70"><g id="node_expander69" style="cursor: pointer;" display="none"><path id="kity_path_703" fill="white" stroke="gray" d="M594.5,1379.5A6,6,0,1,1,582.5,1379.5A6,6,0,1,1,594.5,1379.5"></path><path id="kity_path_704" fill="none" stroke="gray"></path></g><path id="node_outline70" fill="none" stroke="none" d="M293.5,1368.5h284a5,5,0,0,1,5,5v12a5,5,0,0,1,-5,5h-284a5,5,0,0,1,-5,-5v-12a5,5,0,0,1,5,-5z" stroke-width="3"></path><g id="node_text70" fill="black"><text id="kity_text_700" text-rendering="inherit" font-size="12" dy=".8em" y="1371.7000000476837" x="298.5">按照512byte = 1扇区，写入、作用，保证写入成功</text></g></g><g id="minder_node68"><g id="node_expander67" style="cursor: pointer;"><path id="kity_path_677" fill="white" stroke="gray" d="M740.5,1349.5A6,6,0,1,1,728.5,1349.5A6,6,0,1,1,740.5,1349.5"></path><path id="kity_path_678" fill="none" stroke="gray" d="M730,1349.5L739,1349.5"></path></g><path id="node_outline68" fill="none" stroke="none" d="M627.5,1334.5h96a5,5,0,0,1,5,5v20a5,5,0,0,1,-5,5h-96a5,5,0,0,1,-5,-5v-20a5,5,0,0,1,5,-5z" stroke-width="3"></path><g id="node_text68" fill="black"><text id="kity_text_674" text-rendering="inherit" font-size="12" dy=".8em" y="1341.7000000476837" x="657.5">写入过程图</text></g><g id="node_priority20"><path id="kity_path_681" fill="#4720C4" stroke="none" d="M633,1353c0,3.866,3.134,7,7,7h6c3.866,0,7,-3.134,7,-7V1347H633V1353z"></path><path id="kity_path_682" fill="#A464FF" stroke="none" d="M653,1350c0,3.866,-3.134,7,-7,7H640c-3.866,0,-7,-3.134,-7,-7V1347c0,-3.866,3.134,-7,7,-7h6c3.866,0,7,3.134,7,7V1350z" opacity="0.8"></path><text id="kity_text_683" text-rendering="geometricPrecision" x="642" y="1349.5" text-anchor="middle" font-style="italic" font-size="12" fill="white" dy="5">5</text></g></g><g id="minder_node19"><g id="node_expander18" style="cursor: pointer;" display="none"><path id="kity_path_181" fill="white" stroke="gray" d="M1444.5,744.5A6,6,0,1,1,1432.5,744.5A6,6,0,1,1,1444.5,744.5"></path><path id="kity_path_182" fill="none" stroke="gray"></path></g><path id="node_outline19" fill="none" stroke="none" d="M1449.5,733.5h97a5,5,0,0,1,5,5v12a5,5,0,0,1,-5,5h-97a5,5,0,0,1,-5,-5v-12a5,5,0,0,1,5,-5z"></path><g id="node_text19" fill="black"><text id="kity_text_175" text-rendering="inherit" font-size="12" dy=".8em" y="736.7000000476837" x="1454.5">大小：默认 8 M</text></g></g><g id="minder_node20"><g id="node_expander19" style="cursor: pointer;" display="none"><path id="kity_path_184" fill="white" stroke="gray" d="M1444.5,796.5A6,6,0,1,1,1432.5,796.5A6,6,0,1,1,1444.5,796.5"></path><path id="kity_path_185" fill="none" stroke="gray"></path></g><path id="node_outline20" fill="none" stroke="none" d="M1449.5,785.5h202a5,5,0,0,1,5,5v12a5,5,0,0,1,-5,5h-202a5,5,0,0,1,-5,-5v-12a5,5,0,0,1,5,-5z"></path><g id="node_text20" fill="black"><text id="kity_text_177" text-rendering="inherit" font-size="12" dy=".8em" y="788.7000000476837" x="1454.5">参数设置：Innodb_log_buffer_size</text></g></g><g id="minder_node18"><g id="node_expander17" style="cursor: pointer;"><path id="kity_path_172" fill="white" stroke="gray" d="M1311.5,770.5A6,6,0,1,1,1299.5,770.5A6,6,0,1,1,1311.5,770.5"></path><path id="kity_path_173" fill="none" stroke="gray" d="M1301,770.5L1310,770.5"></path></g><path id="node_outline18" fill="none" stroke="none" d="M1316.5,759.5h83a5,5,0,0,1,5,5v12a5,5,0,0,1,-5,5h-83a5,5,0,0,1,-5,-5v-12a5,5,0,0,1,5,-5z" stroke-width="3"></path><g id="node_text18" fill="black"><text id="kity_text_169" text-rendering="inherit" font-size="12" dy=".8em" y="762.7000000476837" x="1321.5">重做日志缓冲</text></g></g><g id="minder_node22"><g id="node_expander21" style="cursor: pointer;" display="none"><path id="kity_path_200" fill="white" stroke="gray" d="M1493.5,852.5A6,6,0,1,1,1481.5,852.5A6,6,0,1,1,1493.5,852.5"></path><path id="kity_path_201" fill="none" stroke="gray"></path></g><path id="node_outline22" fill="none" stroke="none" d="M1498.5,837.5h221a5,5,0,0,1,5,5v20a5,5,0,0,1,-5,5h-221a5,5,0,0,1,-5,-5v-20a5,5,0,0,1,5,-5z" stroke-width="3"></path><g id="node_text22" fill="black"><text id="kity_text_197" text-rendering="inherit" font-size="12" dy=".8em" y="844.7000000476837" x="1528.5">&#xa0;Mastre Thread每隔 1 秒刷新一次</text></g><g id="node_priority1"><path id="kity_path_204" fill="#840023" stroke="none" d="M1504,856c0,3.866,3.134,7,7,7h6c3.866,0,7,-3.134,7,-7V850H1504V856z"></path><path id="kity_path_205" fill="#FF1200" stroke="none" d="M1524,853c0,3.866,-3.134,7,-7,7H1511c-3.866,0,-7,-3.134,-7,-7V850c0,-3.866,3.134,-7,7,-7h6c3.866,0,7,3.134,7,7V853z" opacity="0.8"></path><text id="kity_text_206" text-rendering="geometricPrecision" x="1513" y="852.5" text-anchor="middle" font-style="italic" font-size="12" fill="white" dy="5">1</text></g></g><g id="minder_node23"><g id="node_expander22" style="cursor: pointer;" display="none"><path id="kity_path_213" fill="white" stroke="gray" d="M1493.5,912.5A6,6,0,1,1,1481.5,912.5A6,6,0,1,1,1493.5,912.5"></path><path id="kity_path_214" fill="none" stroke="gray"></path></g><path id="node_outline23" fill="none" stroke="none" d="M1498.5,897.5h157a5,5,0,0,1,5,5v20a5,5,0,0,1,-5,5h-157a5,5,0,0,1,-5,-5v-20a5,5,0,0,1,5,-5z" stroke-width="3"></path><g id="node_text23" fill="black"><text id="kity_text_210" text-rendering="inherit" font-size="12" dy=".8em" y="904.7000000476837" x="1528.5">每个事务提交时会刷新</text></g><g id="node_priority2"><path id="kity_path_217" fill="#01467F" stroke="none" d="M1504,916c0,3.866,3.134,7,7,7h6c3.866,0,7,-3.134,7,-7V910H1504V916z"></path><path id="kity_path_218" fill="#0074FF" stroke="none" d="M1524,913c0,3.866,-3.134,7,-7,7H1511c-3.866,0,-7,-3.134,-7,-7V910c0,-3.866,3.134,-7,7,-7h6c3.866,0,7,3.134,7,7V913z" opacity="0.8"></path><text id="kity_text_219" text-rendering="geometricPrecision" x="1513" y="912.5" text-anchor="middle" font-style="italic" font-size="12" fill="white" dy="5">2</text></g></g><g id="minder_node24" opacity="1"><g id="node_expander23" style="cursor: pointer;" display="none"><path id="kity_path_226" fill="white" stroke="gray" d="M1516.5,972.5A6,6,0,1,1,1504.5,972.5A6,6,0,1,1,1516.5,972.5"></path><path id="kity_path_227" fill="none" stroke="gray"></path></g><path id="node_outline24" fill="none" stroke="none" d="M1521.5,957.5h231a5,5,0,0,1,5,5v20a5,5,0,0,1,-5,5h-231a5,5,0,0,1,-5,-5v-20a5,5,0,0,1,5,-5z" stroke-width="3"></path><g id="node_text24" fill="black"><text id="kity_text_223" text-rendering="inherit" font-size="12" dy=".8em" y="964.7000000476837" x="1551.5">重做日志缓冲池剩余空间小于 1/2 时</text></g><g id="node_priority3"><path id="kity_path_230" fill="#006300" stroke="none" d="M1527,976c0,3.866,3.134,7,7,7h6c3.866,0,7,-3.134,7,-7V970H1527V976z"></path><path id="kity_path_231" fill="#00AF00" stroke="none" d="M1547,973c0,3.866,-3.134,7,-7,7H1534c-3.866,0,-7,-3.134,-7,-7V970c0,-3.866,3.134,-7,7,-7h6c3.866,0,7,3.134,7,7V973z" opacity="0.8"></path><text id="kity_text_232" text-rendering="geometricPrecision" x="1536" y="972.5" text-anchor="middle" font-style="italic" font-size="12" fill="white" dy="5">3</text></g></g><g id="minder_node21"><g id="node_expander20" style="cursor: pointer;"><path id="kity_path_192" fill="white" stroke="gray" d="M1311.5,912.5A6,6,0,1,1,1299.5,912.5A6,6,0,1,1,1311.5,912.5"></path><path id="kity_path_193" fill="none" stroke="gray" d="M1301,912.5L1310,912.5"></path></g><path id="node_outline21" fill="none" stroke="none" d="M1316.5,901.5h132a5,5,0,0,1,5,5v12a5,5,0,0,1,-5,5h-132a5,5,0,0,1,-5,-5v-12a5,5,0,0,1,5,-5z" stroke-width="3"></path><g id="node_text21" fill="black"><text id="kity_text_189" text-rendering="inherit" font-size="12" dy=".8em" y="904.7000000476837" x="1321.5">重做日志缓冲刷新条件</text></g></g></g></g></svg>